{"extensionsUsed" : ["KHR_materials_pbrSpecularGlossiness"], "accessors" : [{"bufferView" : 0, "byteOffset" : 0, "componentType" : 5123, "count" : 25644, "type" : "SCALAR", "max" : [25643], "min" : [0]}, {"bufferView" : 1, "byteOffset" : 0, "componentType" : 5126, "count" : 25644, "type" : "VEC3", "max" : [1128290, 1128294, 1128298], "min" : [-2.0529162883758545, 1.9470837116241455, 5.947083473205566]}, {"bufferView" : 1, "byteOffset" : 12, "componentType" : 5126, "count" : 25644, "type" : "VEC3", "max" : [1128302, 1128306, 1128310], "min" : [9.947083473205566, 13.947083473205566, 17.947084426879883]}, {"bufferView" : 1, "byteOffset" : 24, "componentType" : 5126, "count" : 25644, "type" : "VEC3", "max" : [1128314, 1128318, 1128322], "min" : [21.947084426879883, 25.947084426879883, 29.947084426879883]}, {"bufferView" : 1, "byteOffset" : 36, "componentType" : 5126, "count" : 25644, "type" : "VEC2", "max" : [1128326, 1128330], "min" : [33.94708251953125, 37.94708251953125]}], "asset" : {"generator" : "Aspose.3D 20.8", "version" : "2.0"}, "buffers" : [{"uri" : "buffer.bin", "byteLength" : 18202408}], "bufferViews" : [{"buffer" : 0, "byteOffset" : 0, "byteLength" : 51288, "target" : 34963}, {"buffer" : 0, "byteOffset" : 51292, "byteLength" : 1128336, "byteStride" : 44, "target" : 34962}, {"buffer" : 0, "byteOffset" : 1179632, "byteLength" : 4309777}, {"buffer" : 0, "byteOffset" : 5489412, "byteLength" : 4840849}, {"buffer" : 0, "byteOffset" : 10330264, "byteLength" : 3562362}, {"buffer" : 0, "byteOffset" : 13892628, "byteLength" : 4309777}], "images" : [{"mimeType" : "image/png", "bufferView" : 2}, {"mimeType" : "image/png", "bufferView" : 3}, {"mimeType" : "image/png", "bufferView" : 4}, {"mimeType" : "image/png", "bufferView" : 5}], "materials" : [{"extensions" : {"KHR_materials_pbrSpecularGlossiness" : {"diffuseFactor" : [1, 1, 1, 1], "diffuseTexture" : {"index" : 1, "texCoord" : 0}, "specularFactor" : [1, 1, 1], "glossinessFactor" : 1, "specularGlossinessTexture" : {"index" : 2, "texCoord" : 0, "scale" : 1}}}, "pbrMetallicRoughness" : {"baseColorFactor" : [1, 1, 1, 1], "metallicFactor" : 1, "roughnessFactor" : 1}, "normalTexture" : {"index" : 0, "texCoord" : 0, "scale" : 1}, "emissiveFactor" : [0, 0, 0], "alphaMode" : "OPAQUE", "doubleSided" : true}], "meshes" : [{"primitives" : [{"attributes" : {"POSITION" : 1, "TANGENT" : 2, "NORMAL" : 3, "TEXCOORD_0" : 4}, "indices" : 0, "material" : 0, "mode" : 4}]}], "nodes" : [{"mesh" : 0, "name" : "residential_house.1"}, {"children" : [0], "matrix" : [0.009999999776482582, 0, 0, 0, 0, 0.009999999776482582, 0, 0, 0, 0, 0.009999999776482582, 0, 0, 0, 0, 1], "name" : "RootNode.0"}], "samplers" : [{"magFilter" : 9729, "minFilter" : 9985, "wrapS" : 10497, "wrapT" : 10497}, {"magFilter" : 9729, "minFilter" : 9985, "wrapS" : 10497, "wrapT" : 10497}, {"magFilter" : 9729, "minFilter" : 9985, "wrapS" : 10497, "wrapT" : 10497}, {"magFilter" : 9729, "minFilter" : 9985, "wrapS" : 10497, "wrapT" : 10497}], "scene" : 0, "scenes" : [{"nodes" : [1]}], "textures" : [{"sampler" : 0, "source" : 0}, {"sampler" : 1, "source" : 1}, {"sampler" : 2, "source" : 2}, {"sampler" : 3, "source" : 3}]}